# xmcd CD database file
#
# Track frame offsets:
#	150
#	10108
#	35383
#	54972
#	76799
#	94880
#	113065
#	133704
#	154324
#	177285
#
# Disc length: 2619 seconds
#
# Revision: 0
# Processed by: cddbd v1.5.2PL0 Copyright (c) Steve Scherf et al.
# Submitted via: CDex 1.75
#
DISCID=710a390a
DTITLE=Johnny Holliday - Shine In Me
DYEAR=1900
DGENRE=Jazz
TTITLE0=Star Spangled Banner (National Anthem) 
TTITLE1=Shine in Me 
TTITLE2=How Deep is Your Love
TTITLE3=I Can See Clearly Now
TTITLE4=There's Somebody Out There 
TTITLE5=Un Lugar (Celestial) 
TTITLE6=I Can See Jesus in You 
TTITLE7=Emmanuel
TTITLE8=You Are 
TTITLE9=When All is Said and Done
EXTD=
EXTT0=
EXTT1=
EXTT2=
EXTT3=
EXTT4=
EXTT5=
EXTT6=
EXTT7=
EXTT8=
EXTT9=
PLAYORDER=
